<svg width="18" height="16" viewBox="0 0 18 16" fill="none" xmlns="http://www.w3.org/2000/svg">
<path d="M9.00001 16.0039L8.24231 15.3192C6.61026 13.8282 5.26026 12.5519 4.19231 11.4904C3.12436 10.4289 2.28141 9.49264 1.66346 8.68174C1.04551 7.87084 0.613782 7.13719 0.368269 6.48078C0.122756 5.82437 0 5.16411 0 4.50001C0 3.22821 0.432052 2.16026 1.29616 1.29615C2.16026 0.432052 3.22821 0 4.50001 0C5.37949 0 6.20449 0.225 6.97501 0.675C7.74552 1.125 8.42052 1.77948 9.00001 2.63846C9.57949 1.77948 10.2545 1.125 11.025 0.675C11.7955 0.225 12.6205 0 13.5 0C14.7718 0 15.8398 0.432052 16.7039 1.29615C17.568 2.16026 18 3.22821 18 4.50001C18 5.16411 17.8773 5.82437 17.6317 6.48078C17.3862 7.13719 16.9545 7.87084 16.3366 8.68174C15.7186 9.49264 14.8789 10.4289 13.8173 11.4904C12.7558 12.5519 11.4026 13.8282 9.7577 15.3192L9.00001 16.0039ZM9.00001 14.65C10.6 13.2039 11.9167 11.9651 12.95 10.9337C13.9833 9.90225 14.8 9.00738 15.4 8.24904C16 7.49071 16.4167 6.81892 16.65 6.23366C16.8833 5.6484 17 5.07052 17 4.50001C17 3.50001 16.6667 2.66667 16 2.00001C15.3333 1.33334 14.5 1.00001 13.5 1.00001C12.7039 1.00001 11.9692 1.22725 11.2962 1.68174C10.6231 2.13622 10.0205 2.82052 9.48847 3.73462H8.51154C7.96667 2.8077 7.3609 2.1202 6.69424 1.67212C6.02757 1.22404 5.29616 1.00001 4.50001 1.00001C3.51283 1.00001 2.6827 1.33334 2.00962 2.00001C1.33654 2.66667 1.00001 3.50001 1.00001 4.50001C1.00001 5.07052 1.11667 5.6484 1.35001 6.23366C1.58334 6.81892 2.00001 7.49071 2.60001 8.24904C3.20001 9.00738 4.01667 9.89904 5.05001 10.924C6.08334 11.949 7.40001 13.191 9.00001 14.65Z" fill="#2D1E17"/>
</svg>
