<svg width="12" height="15" viewBox="0 0 12 15" fill="none" xmlns="http://www.w3.org/2000/svg">
<path d="M1.34616 15C0.962608 15 0.642362 14.8715 0.385417 14.6146C0.128472 14.3576 0 14.0374 0 13.6539V4.67949C0 4.29594 0.128472 3.9757 0.385417 3.71875C0.642362 3.46181 0.962608 3.33333 1.34616 3.33333H2.91667V2.91667C2.91667 2.10684 3.20032 1.41827 3.76763 0.850962C4.33494 0.283654 5.02351 0 5.83334 0C6.64317 0 7.33174 0.283654 7.89905 0.850962C8.46635 1.41827 8.75001 2.10684 8.75001 2.91667V3.33333H10.3205C10.7041 3.33333 11.0243 3.46181 11.2813 3.71875C11.5382 3.9757 11.6667 4.29594 11.6667 4.67949V13.6539C11.6667 14.0374 11.5382 14.3576 11.2813 14.6146C11.0243 14.8715 10.7041 15 10.3205 15H1.34616ZM1.34616 14.1667H10.3205C10.4487 14.1667 10.5662 14.1133 10.6731 14.0064C10.7799 13.8996 10.8333 13.7821 10.8333 13.6539V4.67949C10.8333 4.55128 10.7799 4.43376 10.6731 4.32693C10.5662 4.22009 10.4487 4.16667 10.3205 4.16667H8.75001V6.25C8.75001 6.36859 8.71021 6.46769 8.63062 6.54728C8.55102 6.62687 8.45193 6.66667 8.33334 6.66667C8.21475 6.66667 8.11565 6.62687 8.03606 6.54728C7.95647 6.46769 7.91667 6.36859 7.91667 6.25V4.16667H3.75001V6.25C3.75001 6.36859 3.71021 6.46769 3.63062 6.54728C3.55102 6.62687 3.45193 6.66667 3.33334 6.66667C3.21475 6.66667 3.11566 6.62687 3.03606 6.54728C2.95647 6.46769 2.91667 6.36859 2.91667 6.25V4.16667H1.34616C1.21795 4.16667 1.10043 4.22009 0.993594 4.32693C0.886757 4.43376 0.833338 4.55128 0.833338 4.67949V13.6539C0.833338 13.7821 0.886757 13.8996 0.993594 14.0064C1.10043 14.1133 1.21795 14.1667 1.34616 14.1667ZM3.75001 3.33333H7.91667V2.91667C7.91667 2.33013 7.71608 1.83628 7.31491 1.4351C6.91373 1.03393 6.41988 0.833338 5.83334 0.833338C5.2468 0.833338 4.75294 1.03393 4.35177 1.4351C3.9506 1.83628 3.75001 2.33013 3.75001 2.91667V3.33333ZM0.833338 14.1667C0.833338 14.1667 0.833338 14.1133 0.833338 14.0064C0.833338 13.8996 0.833338 13.7821 0.833338 13.6539V4.67949C0.833338 4.55128 0.833338 4.43376 0.833338 4.32693C0.833338 4.22009 0.833338 4.16667 0.833338 4.16667C0.833338 4.16667 0.833338 4.22009 0.833338 4.32693C0.833338 4.43376 0.833338 4.55128 0.833338 4.67949V13.6539C0.833338 13.7821 0.833338 13.8996 0.833338 14.0064C0.833338 14.1133 0.833338 14.1667 0.833338 14.1667Z" fill="#2D1E17"/>
</svg>
