<svg width="15" height="14" viewBox="0 0 15 14" fill="none" xmlns="http://www.w3.org/2000/svg">
<path d="M7.50001 13.3366L6.86859 12.766C5.50855 11.5235 4.38355 10.4599 3.49359 9.57533C2.60363 8.69071 1.90118 7.91053 1.38622 7.23478C0.871261 6.55903 0.511485 5.94766 0.306891 5.40065C0.102297 4.85364 0 4.30342 0 3.75001C0 2.69017 0.360043 1.80022 1.08013 1.08013C1.80022 0.360043 2.69017 0 3.75001 0C4.48291 0 5.17041 0.1875 5.81251 0.5625C6.4546 0.937499 7.0171 1.4829 7.50001 2.19872C7.98291 1.4829 8.54541 0.937499 9.1875 0.5625C9.8296 0.1875 10.5171 0 11.25 0C12.3098 0 13.1998 0.360043 13.9199 1.08013C14.64 1.80022 15 2.69017 15 3.75001C15 4.30342 14.8977 4.85364 14.6931 5.40065C14.4885 5.94766 14.1287 6.55903 13.6138 7.23478C13.0988 7.91053 12.399 8.69071 11.5144 9.57533C10.6298 10.4599 9.50215 11.5235 8.13142 12.766L7.50001 13.3366ZM7.50001 12.2083C8.83334 11.0032 9.93056 9.97089 10.7917 9.11138C11.6528 8.25187 12.3333 7.50615 12.8333 6.8742C13.3333 6.24226 13.6806 5.68243 13.875 5.19472C14.0694 4.707 14.1667 4.22543 14.1667 3.75001C14.1667 2.91667 13.8889 2.22223 13.3333 1.66667C12.7778 1.11112 12.0833 0.833338 11.25 0.833338C10.5865 0.833338 9.97436 1.02271 9.41347 1.40145C8.85257 1.78019 8.35043 2.35043 7.90706 3.11218H7.09295C6.63889 2.33975 6.13409 1.76683 5.57853 1.39344C5.02297 1.02004 4.41347 0.833338 3.75001 0.833338C2.92736 0.833338 2.23558 1.11112 1.67468 1.66667C1.11379 2.22223 0.833338 2.91667 0.833338 3.75001C0.833338 4.22543 0.930561 4.707 1.12501 5.19472C1.31945 5.68243 1.66667 6.24226 2.16667 6.8742C2.66667 7.50615 3.34723 8.2492 4.20834 9.10337C5.06945 9.95754 6.16667 10.9925 7.50001 12.2083Z" fill="#2D1E17"/>
</svg>
