<svg width="12" height="12" viewBox="0 0 12 12" fill="none" xmlns="http://www.w3.org/2000/svg">
<path d="M5.83334 5.00001C5.14103 5.00001 4.55128 4.75642 4.0641 4.26924C3.57692 3.78206 3.33333 3.19231 3.33333 2.50001C3.33333 1.8077 3.57692 1.21795 4.0641 0.730771C4.55128 0.24359 5.14103 0 5.83334 0C6.52565 0 7.11539 0.24359 7.60257 0.730771C8.08975 1.21795 8.33334 1.8077 8.33334 2.50001C8.33334 3.19231 8.08975 3.78206 7.60257 4.26924C7.11539 4.75642 6.52565 5.00001 5.83334 5.00001ZM0 11.0257V9.65385C0 9.30984 0.10016 8.98799 0.300481 8.68831C0.500802 8.38863 0.7703 8.15599 1.10898 7.99039C1.8953 7.61325 2.68216 7.3304 3.46955 7.14183C4.25695 6.95326 5.04488 6.85898 5.83334 6.85898C6.6218 6.85898 7.40973 6.95326 8.19712 7.14183C8.98452 7.3304 9.77138 7.61325 10.5577 7.99039C10.8964 8.15599 11.1659 8.38863 11.3662 8.68831C11.5665 8.98799 11.6667 9.30984 11.6667 9.65385V11.0257H0ZM0.833338 10.1923H10.8333V9.65385C10.8333 9.46903 10.7738 9.29541 10.6547 9.13302C10.5355 8.97063 10.3707 8.83334 10.1603 8.72116C9.47437 8.3889 8.76717 8.13436 8.03868 7.95754C7.31019 7.78072 6.57507 7.69232 5.83334 7.69232C5.0916 7.69232 4.35649 7.78072 3.628 7.95754C2.89951 8.13436 2.19231 8.3889 1.50641 8.72116C1.29594 8.83334 1.13115 8.97063 1.01202 9.13302C0.8929 9.29541 0.833338 9.46903 0.833338 9.65385V10.1923ZM5.83334 4.16667C6.29167 4.16667 6.68403 4.00348 7.01042 3.67709C7.33681 3.3507 7.50001 2.95834 7.50001 2.50001C7.50001 2.04167 7.33681 1.64931 7.01042 1.32292C6.68403 0.996533 6.29167 0.833338 5.83334 0.833338C5.375 0.833338 4.98264 0.996533 4.65626 1.32292C4.32987 1.64931 4.16667 2.04167 4.16667 2.50001C4.16667 2.95834 4.32987 3.3507 4.65626 3.67709C4.98264 4.00348 5.375 4.16667 5.83334 4.16667Z" fill="#2D1E17"/>
</svg>
