<svg width="21" height="15" viewBox="0 0 21 15" fill="none" xmlns="http://www.w3.org/2000/svg">
<path d="M3.99548 14.1154C3.26773 14.1154 2.65065 13.8611 2.14424 13.3526C1.63782 12.844 1.38462 12.2265 1.38462 11.5H0V1.61539C0 1.15513 0.154167 0.770834 0.462501 0.4625C0.770835 0.154167 1.15513 0 1.61539 0H14.8462V3.61539H17.1539L20.6154 8.26923V11.5H19C19 12.2265 18.7453 12.844 18.2359 13.3526C17.7264 13.8611 17.1078 14.1154 16.3801 14.1154C15.6523 14.1154 15.0353 13.8611 14.5288 13.3526C14.0224 12.844 13.7692 12.2265 13.7692 11.5H6.61539C6.61539 12.2308 6.36068 12.8494 5.85125 13.3558C5.34182 13.8622 4.72323 14.1154 3.99548 14.1154ZM4.00001 13.1154C4.45001 13.1154 4.83174 12.9587 5.1452 12.6452C5.45866 12.3317 5.61539 11.95 5.61539 11.5C5.61539 11.05 5.45866 10.6683 5.1452 10.3548C4.83174 10.0414 4.45001 9.88463 4.00001 9.88463C3.55001 9.88463 3.16828 10.0414 2.85482 10.3548C2.54136 10.6683 2.38463 11.05 2.38463 11.5C2.38463 11.95 2.54136 12.3317 2.85482 12.6452C3.16828 12.9587 3.55001 13.1154 4.00001 13.1154ZM1.00001 10.5H1.64616C1.78847 10.059 2.07821 9.67949 2.51539 9.36154C2.95257 9.0436 3.44744 8.88462 4.00001 8.88462C4.52693 8.88462 5.01539 9.04039 5.46539 9.35193C5.91539 9.66347 6.21154 10.0462 6.35385 10.5H13.8462V1.00001H1.61539C1.46154 1.00001 1.32052 1.06411 1.19231 1.19231C1.06411 1.32052 1.00001 1.46154 1.00001 1.61539V10.5ZM16.3846 13.1154C16.8346 13.1154 17.2163 12.9587 17.5298 12.6452C17.8433 12.3317 18 11.95 18 11.5C18 11.05 17.8433 10.6683 17.5298 10.3548C17.2163 10.0414 16.8346 9.88463 16.3846 9.88463C15.9346 9.88463 15.5529 10.0414 15.2394 10.3548C14.926 10.6683 14.7692 11.05 14.7692 11.5C14.7692 11.95 14.926 12.3317 15.2394 12.6452C15.5529 12.9587 15.9346 13.1154 16.3846 13.1154ZM14.8462 8.5H19.5577L16.6154 4.61539H14.8462V8.5Z" fill="#2D1E17"/>
</svg>
