<svg width="20" height="19" viewBox="0 0 20 19" fill="none" xmlns="http://www.w3.org/2000/svg">
<path d="M6.67693 18.4616L5.0077 15.6462L1.83077 14.9616L2.14231 11.6846L0 9.23078L2.14231 6.77693L1.83077 3.5L5.0077 2.81539L6.67693 0L9.65385 1.25769L12.6308 0L14.3 2.81539L17.4769 3.5L17.1654 6.77693L19.3077 9.23078L17.1654 11.6846L17.4769 14.9616L14.3 15.6462L12.6308 18.4616L9.65385 17.2039L6.67693 18.4616ZM7.10385 17.1808L9.65385 16.1192L12.2154 17.1808L13.6539 14.7808L16.4039 14.1692L16.1539 11.3308L18.0039 9.23078L16.1539 7.11924L16.4039 4.28078L13.6539 3.68078L12.2039 1.28078L9.65385 2.34232L7.09232 1.28078L5.65385 3.68078L2.90385 4.28078L3.15385 7.11924L1.30385 9.23078L3.15385 11.3308L2.90385 14.1808L5.65385 14.7808L7.10385 17.1808ZM8.60385 12.0885L13.5616 7.13078L12.8539 6.41154L8.60385 10.6615L6.45385 8.52308L5.74616 9.23078L8.60385 12.0885Z" fill="#2D1E17"/>
</svg>
