<svg width="9" height="11" viewBox="0 0 9 11" fill="none" xmlns="http://www.w3.org/2000/svg">
<path d="M0.942309 10.5C0.681304 10.5 0.459002 10.4082 0.275401 10.2246C0.0918004 10.041 0 9.81871 0 9.5577V4.44231C0 4.18131 0.0918004 3.95901 0.275401 3.7754C0.459002 3.5918 0.681304 3.5 0.942309 3.5H1.75V2.33334C1.75 1.68344 1.97642 1.13208 2.42925 0.679248C2.88208 0.226416 3.43344 0 4.08334 0C4.73323 0 5.28459 0.226416 5.73743 0.679248C6.19026 1.13208 6.41667 1.68344 6.41667 2.33334V3.5H7.22436C7.48537 3.5 7.70767 3.5918 7.89127 3.7754C8.07487 3.95901 8.16667 4.18131 8.16667 4.44231V9.5577C8.16667 9.81871 8.07487 10.041 7.89127 10.2246C7.70767 10.4082 7.48537 10.5 7.22436 10.5H0.942309ZM0.942309 9.91667H7.22436C7.32906 9.91667 7.41507 9.88302 7.48238 9.81571C7.54968 9.74841 7.58334 9.6624 7.58334 9.5577V4.44231C7.58334 4.33761 7.54968 4.25161 7.48238 4.1843C7.41507 4.11699 7.32906 4.08334 7.22436 4.08334H0.942309C0.837609 4.08334 0.751605 4.11699 0.684298 4.1843C0.616991 4.25161 0.583337 4.33761 0.583337 4.44231V9.5577C0.583337 9.6624 0.616991 9.74841 0.684298 9.81571C0.751605 9.88302 0.837609 9.91667 0.942309 9.91667ZM4.08334 7.87501C4.32938 7.87501 4.53673 7.79069 4.70537 7.62204C4.87402 7.4534 4.95834 7.24605 4.95834 7.00001C4.95834 6.75396 4.87402 6.54661 4.70537 6.37797C4.53673 6.20933 4.32938 6.12501 4.08334 6.12501C3.83729 6.12501 3.62994 6.20933 3.4613 6.37797C3.29266 6.54661 3.20834 6.75396 3.20834 7.00001C3.20834 7.24605 3.29266 7.4534 3.4613 7.62204C3.62994 7.79069 3.83729 7.87501 4.08334 7.87501ZM2.33334 3.5H5.83334V2.33334C5.83334 1.84723 5.6632 1.43403 5.32292 1.09375C4.98264 0.753476 4.56945 0.583337 4.08334 0.583337C3.59723 0.583337 3.18403 0.753476 2.84375 1.09375C2.50348 1.43403 2.33334 1.84723 2.33334 2.33334V3.5ZM0.583337 9.91667C0.583337 9.91667 0.583337 9.88302 0.583337 9.81571C0.583337 9.74841 0.583337 9.6624 0.583337 9.5577V4.44231C0.583337 4.33761 0.583337 4.25161 0.583337 4.1843C0.583337 4.11699 0.583337 4.08334 0.583337 4.08334C0.583337 4.08334 0.583337 4.11699 0.583337 4.1843C0.583337 4.25161 0.583337 4.33761 0.583337 4.44231V9.5577C0.583337 9.6624 0.583337 9.74841 0.583337 9.81571C0.583337 9.88302 0.583337 9.91667 0.583337 9.91667Z" fill="#F7F1E8"/>
</svg>
