<svg width="14" height="14" viewBox="0 0 14 14" fill="none" xmlns="http://www.w3.org/2000/svg">
<path d="M13.0641 13.6539L7.84616 8.43591C7.42949 8.79061 6.95033 9.06518 6.40866 9.25962C5.86699 9.45407 5.32265 9.55129 4.77564 9.55129C3.44338 9.55129 2.31437 9.08842 1.38862 8.16267C0.462874 7.23692 0 6.10791 0 4.77564C0 3.44338 0.462874 2.31437 1.38862 1.38862C2.31437 0.462875 3.44338 0 4.77564 0C6.10791 0 7.23692 0.462875 8.16267 1.38862C9.08842 2.31437 9.55129 3.44338 9.55129 4.77564C9.55129 5.3547 9.44873 5.91507 9.2436 6.45674C9.03847 6.9984 8.76924 7.46154 8.43591 7.84616L13.6539 13.0641L13.0641 13.6539ZM4.77564 8.71795C5.88141 8.71795 6.81491 8.33734 7.57612 7.57612C8.33734 6.81491 8.71795 5.88141 8.71795 4.77564C8.71795 3.66988 8.33734 2.73638 7.57612 1.97517C6.81491 1.21395 5.88141 0.833338 4.77564 0.833338C3.66988 0.833338 2.73638 1.21395 1.97517 1.97517C1.21395 2.73638 0.833338 3.66988 0.833338 4.77564C0.833338 5.88141 1.21395 6.81491 1.97517 7.57612C2.73638 8.33734 3.66988 8.71795 4.77564 8.71795Z" fill="#2D1E17"/>
</svg>
