<svg width="16" height="15" viewBox="0 0 16 15" fill="none" xmlns="http://www.w3.org/2000/svg">
<path d="M2.09231 12.8686C1.43205 12.2019 0.91827 11.4396 0.550962 10.5816C0.183654 9.72366 0 8.83661 0 7.92048C0 6.99869 0.177564 6.07978 0.532693 5.16375C0.887821 4.24772 1.45769 3.3974 2.24231 2.61279C2.87692 1.97817 3.68109 1.47497 4.65481 1.10317C5.62853 0.731377 6.68686 0.459902 7.82981 0.288749C8.97276 0.117594 10.1574 0.0230423 11.3837 0.00509389C12.6099 -0.0128555 13.791 0.0166316 14.9269 0.0935552C15.009 1.19356 15.041 2.35382 15.0231 3.57433C15.0051 4.79485 14.9061 5.9785 14.726 7.1253C14.5458 8.27209 14.2708 9.33619 13.901 10.3176C13.5311 11.299 13.0333 12.1025 12.4077 12.7282C11.6398 13.509 10.8112 14.0779 9.92212 14.4349C9.03302 14.792 8.14065 14.9705 7.24501 14.9705C6.30603 14.9705 5.37757 14.7868 4.45962 14.4195C3.54167 14.0522 2.75257 13.5352 2.09231 12.8686ZM3.77693 12.9397C4.29873 13.2872 4.86507 13.5458 5.47597 13.7157C6.08687 13.8855 6.67821 13.9705 7.25001 13.9705C8.02535 13.9705 8.79226 13.8195 9.55074 13.5176C10.3092 13.2157 11.0237 12.7166 11.6942 12.0205C11.9918 11.7205 12.2936 11.2997 12.5994 10.758C12.9053 10.2163 13.1698 9.50798 13.393 8.63298C13.6162 7.75798 13.7857 6.69965 13.9014 5.45798C14.0171 4.21632 14.0462 2.73715 13.9885 1.02048C13.1718 0.98715 12.2446 0.981061 11.2067 1.00221C10.1689 1.02337 9.13206 1.11215 8.09616 1.26856C7.06026 1.42497 6.08719 1.66343 5.17693 1.98395C4.26667 2.30446 3.53911 2.73715 2.99424 3.28202C2.25706 4.0192 1.74039 4.7833 1.44424 5.57433C1.14808 6.36536 1.00001 7.10253 1.00001 7.78587C1.00001 8.69228 1.1811 9.53875 1.54328 10.3253C1.90546 11.1118 2.3436 11.7256 2.8577 12.1666C3.27565 10.9871 3.9218 9.85542 4.79616 8.77144C5.67052 7.68747 6.8936 6.67689 8.4654 5.73971C7.31668 6.73843 6.35097 7.80093 5.56828 8.92721C4.78559 10.0535 4.18847 11.391 3.77693 12.9397Z" fill="#2D1E17"/>
</svg>
